<svg version="1.1" id="Layer_1" xmlns="http://www.w3.org/2000/svg" xmlns:xlink="http://www.w3.org/1999/xlink" x="0px" y="0px"
	 width="100%" viewBox="0 0 1024 576" enable-background="new 0 0 1024 576" xml:space="preserve">
<path fill="#000000" opacity="1.000000" stroke="none" 
	d="
M330.721802,302.999939 
	C330.721710,290.895569 330.721710,279.291229 330.721710,267.686890 
	C330.390015,267.580536 330.058289,267.474182 329.726593,267.367828 
	C326.667419,272.780396 323.587769,278.181519 320.554199,283.608368 
	C316.653473,290.586456 312.706207,297.540771 308.955719,304.599274 
	C307.656128,307.045197 306.200287,308.468292 303.208496,308.400818 
	C300.333862,308.335968 298.632843,307.180756 297.313477,304.696106 
	C291.611664,293.958008 285.789398,283.283844 279.998901,272.592926 
	C278.979065,270.710083 277.901642,268.858459 276.660980,266.655334 
	C275.416992,268.366058 275.987976,269.879272 275.984314,271.239227 
	C275.939514,287.899567 275.855072,304.561157 276.031067,321.219788 
	C276.077057,325.572235 274.498657,327.059540 270.203735,327.087708 
	C259.906494,327.155182 259.903809,327.316376 259.901398,317.205292 
	C259.895416,292.213593 259.879120,267.221893 259.898499,242.230209 
	C259.903992,235.157776 260.224640,234.882217 267.164459,234.830887 
	C267.830902,234.825958 268.515228,234.924042 269.161011,234.807129 
	C275.324738,233.691315 278.885223,236.331238 281.628571,241.919662 
	C287.496643,253.873489 293.990692,265.520538 300.261688,277.275482 
	C301.174194,278.985962 301.720917,281.022705 303.797638,281.934845 
	C305.674866,281.092041 306.206360,279.254852 307.019714,277.666901 
	C313.397766,265.214783 319.922302,252.832886 326.017761,240.243454 
	C328.003204,236.142746 330.642151,234.744980 334.978760,234.800354 
	C348.219696,234.969437 346.271210,233.049637 346.330750,246.133362 
	C346.443665,270.957947 346.379578,295.783386 346.367096,320.608459 
	C346.363739,327.278595 346.327545,327.278564 339.756134,327.306824 
	C330.746277,327.345520 330.739471,327.345551 330.717651,318.494476 
	C330.705292,313.496338 330.719635,308.498108 330.721802,302.999939 
z"/>
<path fill="#000000" opacity="1.000000" stroke="none" 
	d="
M479.268677,235.744965 
	C489.877289,236.100296 500.068939,234.880768 510.160675,236.571442 
	C531.442261,240.136810 539.167297,259.636566 526.207886,276.939392 
	C525.726562,277.581970 525.368347,278.316650 524.708801,279.414642 
	C531.143066,283.686401 533.849487,289.920563 534.197571,297.249878 
	C534.946411,313.023132 525.892456,323.188507 508.486755,324.865845 
	C498.744293,325.804718 488.853394,325.184753 479.029968,325.313660 
	C476.236053,325.350311 475.133972,323.849976 475.090302,321.301025 
	C475.041809,318.470490 475.055786,315.638794 475.051758,312.807587 
	C475.018402,289.322479 474.959381,265.837341 474.992126,242.352295 
	C474.996002,239.566376 473.996399,235.902222 479.268677,235.744965 
M515.059937,290.341553 
	C508.003632,286.239258 500.251190,287.483093 492.677643,287.496704 
	C490.419952,287.500763 490.227570,289.360077 490.225067,291.100006 
	C490.216980,296.744995 490.270538,302.390259 490.224426,308.034790 
	C490.204376,310.485901 491.157867,311.736023 493.739777,311.695312 
	C499.042694,311.611603 504.349121,311.961121 509.605988,310.770782 
	C519.915100,308.436462 522.891968,298.727203 515.059937,290.341553 
M517.196045,266.331512 
	C519.224976,256.175720 515.579529,251.225830 505.312958,250.230942 
	C503.828766,250.087097 502.335266,249.990616 500.844666,249.969101 
	C487.730988,249.779648 490.151031,250.027466 490.280273,260.121826 
	C490.485077,276.115082 486.612457,273.986511 505.041779,273.772552 
	C510.066742,273.714203 514.530029,272.095703 517.196045,266.331512 
z"/>
<path fill="#000000" opacity="1.000000" stroke="none" 
	d="
M351.019165,334.729492 
	C378.816284,335.786072 406.118896,336.837097 433.669983,337.897705 
	C433.012787,340.967346 430.909729,341.176483 429.415222,341.895569 
	C404.085022,354.083679 378.701996,366.162048 353.384705,378.376862 
	C350.280853,379.874329 347.861938,380.462524 344.829895,377.923004 
	C328.502258,364.247833 312.005249,350.774994 295.579681,337.216553 
	C294.575836,336.387970 293.397400,335.637421 293.115234,332.730804 
	C312.365326,333.399109 331.444977,334.061523 351.019165,334.729492 
z"/>
<path fill="#000000" opacity="1.000000" stroke="none" 
	d="
M377.365967,252.423798 
	C371.798553,259.535126 373.333221,265.682465 381.110596,269.048828 
	C386.208557,271.255432 391.682556,271.964447 397.011902,273.261017 
	C400.081848,274.007874 403.167908,274.758209 406.148438,275.790680 
	C419.087433,280.272858 425.127533,288.018372 425.328247,300.171265 
	C425.566437,314.592896 419.972992,323.910431 407.019562,328.495331 
	C389.493134,334.698822 373.268494,330.840637 358.265320,320.539459 
	C356.160034,319.093933 355.468079,317.305145 357.092346,315.039429 
	C357.285919,314.769440 357.450958,314.477570 357.613892,314.187225 
	C362.812439,304.922882 362.733063,305.049744 371.589966,310.563232 
	C380.370117,316.028931 389.965637,317.362152 399.903015,314.632660 
	C406.032196,312.949188 409.392853,308.654175 409.694519,303.343231 
	C410.040649,297.248596 406.474854,293.891998 401.455719,291.502991 
	C396.893280,289.331299 391.960388,288.458466 387.106781,287.325928 
	C382.235596,286.189270 377.420349,284.894165 372.789398,282.989899 
	C355.223297,275.766632 352.001892,251.522247 367.228363,239.969208 
	C378.328613,231.546906 391.032898,231.293472 403.975311,234.071762 
	C410.171997,235.401993 416.009583,237.893753 421.323730,241.518478 
	C423.929657,243.295975 424.264862,244.882843 422.458832,247.640121 
	C417.175262,255.706406 417.417999,255.508789 408.439178,251.548279 
	C398.200806,247.032181 387.756683,244.859680 377.365967,252.423798 
z"/>
<path fill="#000000" opacity="1.000000" stroke="none" 
	d="
M716.500366,342.948486 
	C715.873596,338.618317 715.393616,334.682159 716.182861,330.741974 
	C718.648254,330.019623 719.596863,332.046204 720.934692,333.058289 
	C727.414490,337.960052 734.707336,339.689819 742.606995,338.434845 
	C750.731628,337.144165 754.535339,331.175720 752.915527,322.649841 
	C749.528320,322.101166 746.594543,324.103088 743.392456,324.645355 
	C727.550964,327.328339 714.534058,318.516998 711.486755,302.672058 
	C710.147156,295.706879 710.090698,288.731964 712.217468,281.932373 
	C716.619324,267.859070 727.790466,260.073608 742.972778,260.890411 
	C749.719666,261.253387 756.367432,262.948425 763.229675,262.174469 
	C766.055542,261.855743 768.012146,263.195953 767.977661,266.503876 
	C767.764160,286.969818 769.029358,307.478638 767.409302,327.891754 
	C766.150818,343.749542 755.315857,352.447327 739.261963,351.660889 
	C730.927979,351.252655 722.645203,350.250702 716.500366,342.948486 
M753.607361,302.973480 
	C753.624084,295.502655 753.637756,288.031830 753.659485,280.561005 
	C753.665466,278.503021 753.438721,276.690155 751.290405,275.516846 
	C744.730042,271.933990 733.570068,274.375824 729.167236,280.473450 
	C725.891296,285.010468 725.077148,290.163208 725.302612,295.601776 
	C725.836853,308.487396 736.125977,315.230438 748.262085,310.717834 
	C751.561096,309.491150 753.687988,307.592651 753.607361,302.973480 
z"/>
<path fill="#000000" opacity="1.000000" stroke="none" 
	d="
M688.906616,312.978882 
	C688.898193,303.828125 688.970764,295.171967 688.861023,286.518097 
	C688.756897,278.306976 685.958862,275.119568 679.068054,274.986298 
	C670.220886,274.815186 664.498291,279.324341 664.356445,287.029083 
	C664.160461,297.678223 664.345825,308.333923 664.230530,318.985352 
	C664.207397,321.126740 665.334290,324.306854 662.248901,324.958954 
	C658.737671,325.701050 654.928467,326.033264 651.444458,324.639221 
	C650.148743,324.120789 650.554260,322.296417 650.549561,320.971985 
	C650.486206,303.007416 650.459778,285.042480 650.298767,267.078766 
	C650.270020,263.867096 651.437073,262.327393 654.659912,262.707153 
	C658.462830,263.155334 663.247314,260.632874 665.356873,266.586731 
	C671.725952,262.441132 678.300659,260.151520 685.807129,261.521637 
	C696.481812,263.470001 702.845581,270.051300 703.148315,280.908356 
	C703.519287,294.213684 703.203918,307.537262 703.280884,320.852386 
	C703.298828,323.959198 702.190613,325.394714 698.921570,325.377899 
	C687.104614,325.317047 689.107666,326.242920 688.906616,312.978882 
z"/>
<path fill="#000000" opacity="1.000000" stroke="none" 
	d="
M306.020325,220.925232 
	C317.347717,215.965652 328.370453,211.248642 339.296844,206.318100 
	C342.841705,204.718491 346.111938,204.410507 349.850281,205.717407 
	C366.032867,211.374680 382.287201,216.826538 398.506165,222.380188 
	C399.560181,222.741089 400.819946,222.935715 401.553650,225.463699 
	C361.591675,227.833740 322.006744,231.673706 282.281036,233.448212 
	C282.145172,232.868286 282.009277,232.288376 281.873383,231.708450 
	C289.808350,228.167236 297.743317,224.626022 306.020325,220.925232 
z"/>
<path fill="#000000" opacity="1.000000" stroke="none" 
	d="
M575.939270,257.000183 
	C575.958618,277.953217 576.005188,298.406342 575.966980,318.859314 
	C575.962891,321.051117 576.873535,324.213654 573.974060,324.906097 
	C570.491577,325.737793 566.665100,326.012054 563.193604,324.589264 
	C561.699158,323.976715 561.922241,322.018799 561.921265,320.529694 
	C561.903442,293.757751 561.961670,266.985504 561.832458,240.214157 
	C561.808899,235.325653 564.591309,234.833817 568.284668,235.030548 
	C571.806458,235.218155 576.066345,234.158417 575.959412,240.038483 
	C575.859558,245.524017 575.940552,251.012863 575.939270,257.000183 
z"/>
<path fill="#000000" opacity="1.000000" stroke="none" 
	d="
M619.360535,264.999756 
	C619.353027,283.495178 619.167908,301.493286 619.445801,319.484253 
	C619.526123,324.685760 617.333130,325.520172 612.898804,325.438263 
	C608.577515,325.358429 605.700256,325.188995 605.750793,319.443573 
	C605.980591,293.285828 605.798889,267.124603 605.799988,240.964645 
	C605.800232,235.430649 606.359253,235.210724 612.917297,234.974945 
	C617.376648,234.814606 619.701050,235.828552 619.442688,241.010818 
	C619.053284,248.822449 619.352600,256.668396 619.360535,264.999756 
z"/>
<path fill="#000000" opacity="1.000000" stroke="none" 
	d="
M583.772400,292.000000 
	C583.762268,274.857147 583.739075,258.214325 583.752075,241.571487 
	C583.756958,235.300583 584.090515,235.022614 590.715759,235.008270 
	C597.130432,234.994385 597.343384,235.143036 597.348511,241.233353 
	C597.370178,267.362610 597.185303,293.493835 597.486267,319.619629 
	C597.555237,325.606323 594.382080,325.256683 590.309326,325.415894 
	C585.865112,325.589569 583.509827,324.637512 583.703674,319.457977 
	C584.039673,310.483673 583.782288,301.487183 583.772400,292.000000 
z"/>
<path fill="#000000" opacity="1.000000" stroke="none" 
	d="
M554.064392,317.875488 
	C553.823120,320.585602 554.943909,323.664124 552.452759,324.698151 
	C549.087219,326.095123 545.252930,325.669922 541.691101,324.880676 
	C539.977966,324.501099 540.002319,322.577179 540.000366,321.088989 
	C539.976135,303.146851 540.006409,285.204651 539.955994,267.262604 
	C539.946716,263.947815 541.228760,262.596130 544.693420,262.527008 
	C554.092529,262.339630 554.099854,262.204803 554.097961,271.540314 
	C554.094910,286.824402 554.077393,302.108490 554.064392,317.875488 
z"/>
<path fill="#000000" opacity="1.000000" stroke="none" 
	d="
M639.743408,325.012543 
	C625.807190,325.723236 628.026489,325.722229 627.950195,314.327026 
	C627.847656,299.023651 627.923157,283.718842 627.995911,268.414978 
	C628.005615,266.376923 627.293091,263.432465 630.083191,262.946747 
	C633.604126,262.333679 637.335144,261.821747 640.856079,263.195160 
	C641.331482,263.380615 641.614136,264.630920 641.611755,265.387024 
	C641.553467,284.330292 641.448425,303.273407 641.335388,322.216461 
	C641.329346,323.227539 641.106323,324.205078 639.743408,325.012543 
z"/>
<path fill="#000000" opacity="1.000000" stroke="none" 
	d="
M325.308685,367.658264 
	C327.193390,369.612946 329.876343,370.339813 331.123016,374.310089 
	C304.681671,361.427307 279.167114,349.323547 254.359940,335.919281 
	C254.785156,334.882141 254.882782,334.343201 255.029343,334.329529 
	C263.984924,333.495667 272.944061,333.757324 281.883667,334.511200 
	C284.457916,334.728333 286.331635,336.649933 288.285797,338.204742 
	C300.533752,347.949951 312.783783,357.692566 325.308685,367.658264 
z"/>
<path fill="#000000" opacity="1.000000" stroke="none" 
	d="
M458.464172,283.462708 
	C459.581757,283.343781 460.243744,283.198975 460.905426,283.200317 
	C463.330261,283.205261 466.537933,282.118958 467.735413,284.728027 
	C469.103088,287.707916 468.612122,291.280945 467.880615,294.534668 
	C467.465485,296.381195 465.602295,296.228363 464.124725,296.229797 
	C454.961578,296.238678 445.798279,296.170105 436.635284,296.199860 
	C430.992737,296.218170 432.178864,292.112061 431.963593,288.760803 
	C431.728943,285.107910 432.810547,283.287842 437.021515,283.483276 
	C444.002441,283.807281 451.011353,283.528656 458.464172,283.462708 
z"/>
<path fill="#000000" opacity="1.000000" stroke="none" 
	d="
M505.262024,348.330200 
	C506.329041,345.472565 507.164368,342.941559 508.202423,340.496704 
	C508.768036,339.164581 509.919373,338.366669 511.440277,339.055817 
	C512.895935,339.715393 512.478271,341.017822 512.090332,342.087341 
	C509.652527,348.808441 507.179749,355.517212 504.660187,362.208130 
	C504.118866,363.645599 503.265961,364.960724 501.407837,364.739075 
	C499.883636,364.557281 499.198822,363.403564 498.732391,362.090881 
	C497.126862,357.572296 495.523132,353.053040 493.714325,347.958374 
	C490.667938,351.811646 490.320465,356.191010 488.677826,359.999359 
	C487.908478,361.783020 487.687653,364.238098 485.268707,364.463867 
	C482.570251,364.715759 482.350830,362.055786 481.680756,360.347565 
	C479.374146,354.467041 477.276154,348.504578 475.106415,342.570526 
	C474.704468,341.471222 474.297668,340.358276 475.832458,338.356903 
	C482.447266,342.262115 480.742432,350.742340 485.522827,356.050171 
	C487.180847,351.291077 488.714203,346.816956 490.305206,342.363403 
	C490.850159,340.837952 491.160278,338.859741 493.363098,338.996735 
	C495.396271,339.123230 495.841675,340.961975 496.380646,342.532745 
	C497.991760,347.227936 499.578430,351.931458 501.708160,358.202759 
	C503.184113,354.082550 504.149506,351.387634 505.262024,348.330200 
z"/>
<path fill="#000000" opacity="1.000000" stroke="none" 
	d="
M573.621582,358.076660 
	C573.593567,352.794952 573.644531,347.970520 573.515137,343.150879 
	C573.429077,339.943634 574.854614,338.572205 578.003357,338.700989 
	C581.658997,338.850494 585.378723,338.522491 588.962463,339.087769 
	C594.579407,339.973846 596.817322,343.783783 595.242004,349.188721 
	C594.838135,350.574310 594.816284,351.567657 595.468262,352.904297 
	C598.521606,359.164459 596.171631,363.372559 589.110229,364.317780 
	C586.147949,364.714325 583.130737,364.682953 580.154907,365.000244 
	C575.263977,365.521729 572.856018,363.666840 573.621582,358.076660 
M581.070496,353.440216 
	C578.696289,353.640961 578.122192,355.170105 578.245422,357.238098 
	C578.337097,358.776794 579.096863,359.807007 580.649902,359.834869 
	C583.607849,359.887909 586.574890,359.869446 589.525879,359.684692 
	C590.906677,359.598236 592.090698,358.697327 592.289001,357.248810 
	C592.536804,355.437988 591.117065,354.690826 589.713867,354.084290 
	C587.187927,352.992310 584.514343,353.498840 581.070496,353.440216 
M586.042419,343.082550 
	C584.556580,343.069550 583.070740,343.041931 581.584961,343.047028 
	C579.447021,343.054352 578.160461,343.923767 578.138184,346.274078 
	C578.116638,348.544006 579.138184,349.643494 581.407349,349.615997 
	C583.058289,349.595978 584.711365,349.654144 586.360474,349.595367 
	C588.392822,349.522919 590.679138,349.329285 591.023804,346.877960 
	C591.427063,344.009766 589.147339,343.410858 586.042419,343.082550 
z"/>
<path fill="#000000" opacity="1.000000" stroke="none" 
	d="
M681.490601,345.613220 
	C681.545898,350.857574 681.722412,355.672211 681.720337,360.486725 
	C681.719666,362.051910 681.934692,364.227936 679.642090,364.396027 
	C677.012268,364.588867 676.986023,362.343781 676.944153,360.533661 
	C676.844299,356.214844 676.767639,351.889893 676.890564,347.573364 
	C676.981140,344.394958 675.718689,342.953369 672.499023,343.133392 
	C670.679749,343.235138 668.838684,343.180573 667.022278,343.023987 
	C665.647400,342.905426 664.296326,342.348267 664.203125,340.729309 
	C664.104065,339.006958 665.535583,338.621277 666.868469,338.350922 
	C667.677979,338.186676 668.515137,338.087830 669.340515,338.083832 
	C679.311096,338.035706 689.282166,337.958649 699.252136,338.023407 
	C701.256470,338.036407 704.267822,337.573792 704.152039,340.722534 
	C704.036987,343.849060 701.078674,343.074829 699.053772,343.117065 
	C694.734863,343.207184 690.412415,343.114777 686.092407,343.170868 
	C684.329346,343.193787 682.291138,342.785645 681.490601,345.613220 
z"/>
<path fill="#000000" opacity="1.000000" stroke="none" 
	d="
M614.310791,352.932861 
	C610.254150,351.481171 607.059326,349.600159 607.961792,344.973083 
	C608.887146,340.228851 612.488831,338.793945 616.864502,338.634430 
	C619.735413,338.529785 622.542725,338.782471 625.046143,340.311127 
	C626.333313,341.097137 627.699890,342.143494 626.737732,343.909027 
	C625.892822,345.459381 624.450562,344.912109 623.228149,344.331970 
	C620.751648,343.156616 618.192810,342.663208 615.476440,343.149811 
	C614.054688,343.404480 612.896973,344.098419 612.716980,345.614807 
	C612.530640,347.184662 613.628052,348.096954 614.952209,348.525208 
	C617.791016,349.443390 620.738159,350.053650 623.524231,351.100525 
	C626.330688,352.155090 628.350586,354.071167 628.247620,357.419922 
	C628.141907,360.854797 626.180298,362.924591 623.148865,364.101990 
	C618.657288,365.846466 614.309265,365.277313 610.207947,362.925537 
	C608.243835,361.799286 606.872375,360.228638 607.911499,357.908905 
	C609.774780,356.947205 610.748718,358.025208 611.799622,358.794678 
	C613.924622,360.350433 616.338196,360.784546 618.891541,360.600586 
	C620.990112,360.449432 623.198975,359.869965 623.355469,357.493622 
	C623.501099,355.282562 621.289062,354.770966 619.515625,354.278076 
	C617.915222,353.833252 616.295044,353.459900 614.310791,352.932861 
z"/>
<path fill="#000000" opacity="1.000000" stroke="none" 
	d="
M547.002686,233.973022 
	C553.058044,235.192123 556.028564,238.127441 556.121826,242.583389 
	C556.209717,246.779633 553.350647,250.478638 549.378296,251.308304 
	C544.416809,252.344559 539.759583,249.512222 538.637756,244.776276 
	C537.317017,239.200378 540.083008,235.453339 547.002686,233.973022 
z"/>
<path fill="#000000" opacity="1.000000" stroke="none" 
	d="
M643.320190,242.139221 
	C643.290283,247.380127 641.006531,250.471054 636.177551,251.246994 
	C632.020996,251.914886 628.557312,250.717758 626.716370,246.581024 
	C624.880371,242.455414 625.533142,238.650955 629.028137,235.784882 
	C632.361206,233.051529 636.101562,233.224045 639.688416,235.501587 
	C641.931091,236.925583 643.117676,239.055283 643.320190,242.139221 
z"/>
<path fill="#000000" opacity="1.000000" stroke="none" 
	d="
M520.709473,341.600372 
	C519.878784,338.844543 521.596680,338.188965 523.283691,338.178528 
	C536.590088,338.096375 549.897400,338.111328 563.203918,338.194214 
	C564.737610,338.203766 566.237549,338.920532 566.007507,340.935730 
	C565.815796,342.615570 564.433411,343.041473 563.072327,343.043579 
	C549.763489,343.064178 536.454529,343.043549 523.146057,342.959961 
	C522.404724,342.955322 521.667542,342.293060 520.709473,341.600372 
z"/>
<path fill="#000000" opacity="1.000000" stroke="none" 
	d="
M559.741150,359.819366 
	C562.087036,360.024231 564.768433,359.320740 564.871948,362.191254 
	C564.971863,364.960205 562.353638,364.940125 560.425903,364.965210 
	C552.606750,365.066925 544.784973,365.084839 536.965881,364.991699 
	C535.061218,364.969025 532.339355,364.987549 532.520142,362.251129 
	C532.694336,359.614227 535.376770,359.931183 537.309204,359.909943 
	C544.630310,359.829529 551.952454,359.842468 559.741150,359.819366 
z"/>
<path fill="#000000" opacity="1.000000" stroke="none" 
	d="
M546.031738,348.837524 
	C550.176147,348.839722 553.830627,348.809692 557.483459,348.872253 
	C559.064758,348.899323 560.628174,349.365601 560.720886,351.248047 
	C560.814880,353.156433 559.246826,353.840820 557.706299,353.864258 
	C551.068054,353.965179 544.426575,353.986481 537.788696,353.882935 
	C536.075317,353.856232 534.333618,353.125610 534.577209,350.924255 
	C534.798279,348.927094 536.611938,348.997253 538.068237,348.934662 
	C540.555969,348.827667 543.049866,348.865692 546.031738,348.837524 
z"/>
<path fill="#000000" opacity="1.000000" stroke="none" 
	d="
M641.360535,355.899689 
	C641.340881,358.205566 641.367188,360.030579 641.298279,361.852020 
	C641.253479,363.037445 641.082947,364.275146 639.493530,364.319580 
	C638.095581,364.358704 637.179321,363.415253 637.161804,362.205292 
	C637.060974,355.254333 637.063721,348.300720 637.143005,341.349304 
	C637.156616,340.152130 637.903809,339.071289 639.345215,339.126373 
	C641.172180,339.196228 641.321594,340.646667 641.336182,341.988861 
	C641.384949,346.464600 641.361816,350.941101 641.360535,355.899689 
z"/>
<path fill="#000000" opacity="1.000000" stroke="none" 
	d="
M656.383667,357.782959 
	C656.365479,359.081970 656.390930,359.916809 656.325256,360.744385 
	C656.196106,362.370331 656.398438,364.438049 653.929688,364.254181 
	C651.950195,364.106781 651.917419,362.299469 651.905212,360.801819 
	C651.854980,354.647797 651.833435,348.493103 651.868958,342.339050 
	C651.877747,340.810577 652.137146,339.124329 654.145752,339.101654 
	C656.268921,339.077606 656.276917,340.865112 656.298462,342.345520 
	C656.371155,347.334869 656.363220,352.325409 656.383667,357.782959 
z"/>
<path fill="#000000" opacity="1.000000" stroke="none" 
	d="
M700.772278,360.069031 
	C705.500061,359.921570 709.812866,359.833130 714.125671,359.833557 
	C715.843506,359.833740 717.720581,360.113770 717.778198,362.296082 
	C717.834961,364.446564 716.010864,364.949677 714.285461,364.986237 
	C710.140015,365.074188 705.991150,365.050629 701.844543,365.000336 
	C700.480713,364.983765 699.107300,364.609894 698.571533,363.181030 
	C697.968262,361.572174 699.031677,360.741302 700.772278,360.069031 
z"/>
<path fill="#000000" opacity="1.000000" stroke="none" 
	d="
M696.597046,353.922180 
	C694.804138,353.323853 693.774170,352.513031 694.118103,350.889618 
	C694.456604,349.291992 695.792114,348.896973 697.175293,348.877808 
	C700.837158,348.827026 704.501099,348.822144 708.162354,348.894318 
	C709.801636,348.926636 711.232300,349.632751 711.210083,351.490326 
	C711.186829,353.427032 709.532532,353.892853 708.011230,353.942596 
	C704.353882,354.062256 700.690491,353.996979 696.597046,353.922180 
z"/>
</svg>